<svg xmlns="http://www.w3.org/2000/svg" width="200" height="200" viewBox="0 0 200 200">
  <defs>
    <style>
      .cls-1 {
        fill: #ff99eb;
        fill-rule: evenodd;
      }

      .cls-2 {
        fill: none;
        stroke: #ff99eb;
        stroke-width: 2px;
      }
    </style>
  </defs>
  <path id="_LB" data-name="&gt;LB" class="cls-1" d="M29.414,68.738l-4.951,5.078,27.422,27.422L24.463,128.723l4.951,5.015,32.5-32.5Zm95.742,57.7H94.526V74.231h-6.02V131.58h36.65v-5.142Zm40.3-25.181q8.921-3.251,8.921-12.173a14.607,14.607,0,0,0-1.714-7.537,12.649,12.649,0,0,0-4.46-4.5,18.086,18.086,0,0,0-6.219-2.219,41.926,41.926,0,0,0-7.075-.593h-17.27V131.58h18.281q9.8,0,15.117-4.087t5.318-12.3q0-10.59-10.9-13.931h0Zm1.67-7.207A9.019,9.019,0,0,1,164,97.017a12.418,12.418,0,0,1-4.263,1.45,31,31,0,0,1-4.834.374h-11.25V79.373h11.25a29.471,29.471,0,0,1,4.571.373,14.057,14.057,0,0,1,4.35,1.406,8.652,8.652,0,0,1,3.252,2.966,8.867,8.867,0,0,1,1.274,4.966A8.971,8.971,0,0,1,167.124,94.05ZM166.487,123.6q-3.846,2.835-10.569,2.835H143.657V103.85h12.261q6.723,0,10.569,2.7t3.845,8.635Q170.332,120.77,166.487,123.6Z"/>
  <rect class="cls-2" x="11.938" y="43.469" width="176.063" height="113.062"/>
</svg>
