<svg id="Layer_1" data-name="Layer 1" xmlns="http://www.w3.org/2000/svg" viewBox="0 0 352.01 142.59"><defs><style>.cls-1{fill:#fff;}.cls-2{fill:#fffeff;}.cls-3{fill:#fffdff;}.cls-4{fill:#fffcff;}.cls-5{fill:#fffcfe;}.cls-6{fill:#fffbfe;}.cls-7{fill:#fffafe;}.cls-8{fill:#fff9fe;}.cls-9{fill:#fff8fe;}.cls-10{fill:#fff7fe;}.cls-11{fill:#fff7fd;}.cls-12{fill:#fff6fd;}.cls-13{fill:#fff5fd;}.cls-14{fill:#fff4fd;}.cls-15{fill:#fff3fd;}.cls-16{fill:#fff2fd;}.cls-17{fill:#fff2fc;}.cls-18{fill:#fff1fc;}.cls-19{fill:#fff0fc;}.cls-20{fill:#ffeffc;}.cls-21{fill:#ffeefc;}.cls-22{fill:#ffedfc;}.cls-23{fill:#ffedfb;}.cls-24{fill:#ffecfb;}.cls-25{fill:#ffebfb;}.cls-26{fill:#ffeafb;}.cls-27{fill:#ffe9fb;}.cls-28{fill:#ffe8fb;}.cls-29{fill:#ffe8fa;}.cls-30{fill:#ffe7fa;}.cls-31{fill:#ffe6fa;}.cls-32{fill:#ffe5fa;}.cls-33{fill:#ffe4fa;}.cls-34{fill:#ffe3fa;}.cls-35{fill:#ffe3f9;}.cls-36{fill:#ffe2f9;}.cls-37{fill:#ffe1f9;}.cls-38{fill:#ffe0f9;}.cls-39{fill:#ffdff9;}.cls-40{fill:#ffdef9;}.cls-41{fill:#ffdef8;}.cls-42{fill:#ffddf8;}.cls-43{fill:#ffdcf8;}.cls-44{fill:#ffdbf8;}.cls-45{fill:#ffdaf8;}.cls-46{fill:#ffd9f8;}.cls-47{fill:#ffd8f7;}.cls-48{fill:#ffd7f7;}.cls-49{fill:#ffd6f7;}.cls-50{fill:#ffd5f7;}.cls-51{fill:#ffd4f7;}.cls-52{fill:#ffd3f6;}.cls-53{fill:#ffd2f6;}.cls-54{fill:#ffd1f6;}.cls-55{fill:#ffd0f6;}.cls-56{fill:#ffcff6;}.cls-57{fill:#ffcef5;}.cls-58{fill:#ffcdf5;}.cls-59{fill:#ffccf5;}.cls-60{fill:#ffcbf5;}.cls-61{fill:#ffcaf5;}.cls-62{fill:#ffc9f4;}.cls-63{fill:#ffc8f4;}.cls-64{fill:#ffc7f4;}.cls-65{fill:#ffc6f4;}.cls-66{fill:#ffc5f4;}.cls-67{fill:#ffc4f3;}.cls-68{fill:#ffc3f3;}.cls-69{fill:#ffc2f3;}.cls-70{fill:#ffc1f3;}.cls-71{fill:#ffc0f3;}.cls-72{fill:#ffbff2;}.cls-73{fill:#ffbef2;}.cls-74{fill:#ffbdf2;}.cls-75{fill:#ffbcf2;}.cls-76{fill:#ffbbf2;}.cls-77{fill:#ffbaf2;}.cls-78{fill:#ffbaf1;}.cls-79{fill:#ffb9f1;}.cls-80{fill:#ffb8f1;}.cls-81{fill:#ffb7f1;}.cls-82{fill:#ffb6f1;}.cls-83{fill:#ffb5f1;}.cls-84{fill:#ffb5f0;}.cls-85{fill:#ffb4f0;}.cls-86{fill:#ffb3f0;}.cls-87{fill:#ffb2f0;}.cls-88{fill:#ffb1f0;}.cls-89{fill:#ffb0f0;}.cls-90{fill:#ffb0ef;}.cls-91{fill:#ffafef;}.cls-92{fill:#ffaeef;}.cls-93{fill:#ffadef;}.cls-94{fill:#ffacef;}.cls-95{fill:#ffabef;}.cls-96{fill:#ffabee;}.cls-97{fill:#fae;}.cls-98{fill:#ffa9ee;}.cls-99{fill:#ffa8ee;}.cls-100{fill:#ffa7ee;}.cls-101{fill:#ffa6ee;}.cls-102{fill:#ffa6ed;}.cls-103{fill:#ffa5ed;}.cls-104{fill:#ffa4ed;}.cls-105{fill:#ffa3ed;}.cls-106{fill:#ffa2ed;}.cls-107{fill:#ffa1ed;}.cls-108{fill:#ffa1ec;}.cls-109{fill:#ffa0ec;}.cls-110{fill:#ff9fec;}.cls-111{fill:#ff9eec;}.cls-112{fill:#ff9dec;}.cls-113{fill:#ff9cec;}.cls-114{fill:#ff9ceb;}.cls-115{fill:#ff9beb;}.cls-116{fill:#ff9aeb;}.cls-117,.cls-118{fill:#ff99eb;}.cls-118{font-size:128.06px;font-family:Galvji;}.cls-119{letter-spacing:-0.04em;}</style></defs><line class="cls-1" x1="352.01" y1="80.73" x2="324.2" y2="22.05"/><rect class="cls-1" x="49.56" y="128.17" width="29.84" height="11.72"/><rect class="cls-2" x="50.22" y="128.17" width="29.84" height="11.72"/><rect class="cls-2" x="50.88" y="128.17" width="29.84" height="11.72"/><rect class="cls-3" x="51.54" y="128.17" width="29.84" height="11.72"/><rect class="cls-3" x="52.2" y="128.17" width="29.84" height="11.72"/><rect class="cls-4" x="52.86" y="128.17" width="29.84" height="11.72"/><rect class="cls-5" x="53.51" y="128.17" width="29.84" height="11.72"/><rect class="cls-6" x="54.17" y="128.17" width="29.84" height="11.72"/><rect class="cls-6" x="54.83" y="128.17" width="29.84" height="11.72"/><rect class="cls-7" x="55.49" y="128.17" width="29.84" height="11.72"/><rect class="cls-7" x="56.15" y="128.17" width="29.84" height="11.72"/><rect class="cls-8" x="56.8" y="128.17" width="29.84" height="11.72"/><rect class="cls-8" x="57.46" y="128.17" width="29.84" height="11.72"/><rect class="cls-9" x="58.12" y="128.17" width="29.84" height="11.72"/><rect class="cls-9" x="58.78" y="128.17" width="29.84" height="11.72"/><rect class="cls-10" x="59.44" y="128.17" width="29.84" height="11.72"/><rect class="cls-11" x="60.1" y="128.17" width="29.84" height="11.72"/><rect class="cls-12" x="60.75" y="128.17" width="29.84" height="11.72"/><rect class="cls-12" x="61.41" y="128.17" width="29.84" height="11.72"/><rect class="cls-13" x="62.07" y="128.17" width="29.84" height="11.72"/><rect class="cls-13" x="62.73" y="128.17" width="29.84" height="11.72"/><rect class="cls-14" x="63.39" y="128.17" width="29.84" height="11.72"/><rect class="cls-14" x="64.04" y="128.17" width="29.84" height="11.72"/><rect class="cls-15" x="64.7" y="128.17" width="29.84" height="11.72"/><rect class="cls-15" x="65.36" y="128.17" width="29.84" height="11.72"/><rect class="cls-16" x="66.02" y="128.17" width="29.84" height="11.72"/><rect class="cls-17" x="66.68" y="128.17" width="29.84" height="11.72"/><rect class="cls-18" x="67.34" y="128.17" width="29.84" height="11.72"/><rect class="cls-18" x="67.99" y="128.17" width="29.84" height="11.72"/><rect class="cls-19" x="68.65" y="128.17" width="29.84" height="11.72"/><rect class="cls-19" x="69.31" y="128.17" width="29.84" height="11.72"/><rect class="cls-20" x="69.97" y="128.17" width="29.84" height="11.72"/><rect class="cls-20" x="70.63" y="128.17" width="29.84" height="11.72"/><rect class="cls-21" x="71.28" y="128.17" width="29.84" height="11.72"/><rect class="cls-21" x="71.94" y="128.17" width="29.84" height="11.72"/><rect class="cls-22" x="72.6" y="128.17" width="29.84" height="11.72"/><rect class="cls-23" x="73.26" y="128.17" width="29.84" height="11.72"/><rect class="cls-24" x="73.92" y="128.17" width="29.84" height="11.72"/><rect class="cls-24" x="74.58" y="128.17" width="29.84" height="11.72"/><rect class="cls-25" x="75.23" y="128.17" width="29.84" height="11.72"/><rect class="cls-25" x="75.89" y="128.17" width="29.84" height="11.72"/><rect class="cls-26" x="76.55" y="128.17" width="29.84" height="11.72"/><rect class="cls-26" x="77.21" y="128.17" width="29.84" height="11.72"/><rect class="cls-27" x="77.87" y="128.17" width="29.84" height="11.72"/><rect class="cls-27" x="78.52" y="128.17" width="29.84" height="11.72"/><rect class="cls-28" x="79.18" y="128.17" width="29.84" height="11.72"/><rect class="cls-29" x="79.84" y="128.17" width="29.84" height="11.72"/><rect class="cls-30" x="80.5" y="128.17" width="29.84" height="11.72"/><rect class="cls-30" x="81.16" y="128.17" width="29.84" height="11.72"/><rect class="cls-31" x="81.82" y="128.17" width="29.84" height="11.72"/><rect class="cls-31" x="82.47" y="128.17" width="29.84" height="11.72"/><rect class="cls-32" x="83.13" y="128.17" width="29.84" height="11.72"/><rect class="cls-32" x="83.79" y="128.17" width="29.84" height="11.72"/><rect class="cls-33" x="84.45" y="128.17" width="29.84" height="11.72"/><rect class="cls-33" x="85.11" y="128.17" width="29.84" height="11.72"/><rect class="cls-34" x="85.76" y="128.17" width="29.84" height="11.72"/><rect class="cls-35" x="86.42" y="128.17" width="29.84" height="11.72"/><rect class="cls-36" x="87.08" y="128.17" width="29.84" height="11.72"/><rect class="cls-36" x="87.74" y="128.17" width="29.84" height="11.72"/><rect class="cls-37" x="88.4" y="128.17" width="29.84" height="11.72"/><rect class="cls-37" x="89.06" y="128.17" width="29.84" height="11.72"/><rect class="cls-38" x="89.71" y="128.17" width="29.84" height="11.72"/><rect class="cls-38" x="90.37" y="128.17" width="29.84" height="11.72"/><rect class="cls-39" x="91.03" y="128.17" width="29.84" height="11.72"/><rect class="cls-39" x="91.69" y="128.17" width="29.84" height="11.72"/><rect class="cls-40" x="92.35" y="128.17" width="29.84" height="11.72"/><rect class="cls-41" x="93" y="128.17" width="29.84" height="11.72"/><rect class="cls-42" x="93.66" y="128.17" width="29.84" height="11.72"/><rect class="cls-43" x="94.32" y="128.17" width="29.84" height="11.72"/><rect class="cls-43" x="94.98" y="128.17" width="29.84" height="11.72"/><rect class="cls-44" x="95.64" y="128.17" width="29.84" height="11.72"/><rect class="cls-44" x="96.3" y="128.17" width="29.84" height="11.72"/><rect class="cls-45" x="96.95" y="128.17" width="29.84" height="11.72"/><rect class="cls-45" x="97.61" y="128.17" width="29.84" height="11.72"/><rect class="cls-46" x="98.27" y="128.17" width="29.84" height="11.72"/><rect class="cls-46" x="98.93" y="128.17" width="29.84" height="11.72"/><rect class="cls-47" x="99.59" y="128.17" width="29.84" height="11.72"/><rect class="cls-47" x="100.24" y="128.17" width="29.84" height="11.72"/><rect class="cls-48" x="100.9" y="128.17" width="29.84" height="11.72"/><rect class="cls-48" x="101.56" y="128.17" width="29.84" height="11.72"/><rect class="cls-49" x="102.22" y="128.17" width="29.84" height="11.72"/><rect class="cls-49" x="102.88" y="128.17" width="29.84" height="11.72"/><rect class="cls-50" x="103.54" y="128.17" width="29.84" height="11.72"/><rect class="cls-50" x="104.19" y="128.17" width="29.84" height="11.72"/><rect class="cls-51" x="104.85" y="128.17" width="29.84" height="11.72"/><rect class="cls-51" x="105.51" y="128.17" width="29.84" height="11.72"/><rect class="cls-52" x="106.17" y="128.17" width="29.84" height="11.72"/><rect class="cls-52" x="106.83" y="128.17" width="29.84" height="11.72"/><rect class="cls-53" x="107.49" y="128.17" width="29.84" height="11.72"/><rect class="cls-53" x="108.14" y="128.17" width="29.84" height="11.72"/><rect class="cls-54" x="108.8" y="128.17" width="29.84" height="11.72"/><rect class="cls-54" x="109.46" y="128.17" width="29.84" height="11.72"/><rect class="cls-55" x="110.12" y="128.17" width="29.84" height="11.72"/><rect class="cls-55" x="110.78" y="128.17" width="29.84" height="11.72"/><rect class="cls-56" x="111.43" y="128.17" width="29.84" height="11.72"/><rect class="cls-56" x="112.09" y="128.17" width="29.84" height="11.72"/><rect class="cls-57" x="112.75" y="128.17" width="29.84" height="11.72"/><rect class="cls-57" x="113.41" y="128.17" width="29.84" height="11.72"/><rect class="cls-58" x="114.07" y="128.17" width="29.84" height="11.72"/><rect class="cls-58" x="114.73" y="128.17" width="29.84" height="11.72"/><rect class="cls-59" x="115.38" y="128.17" width="29.84" height="11.72"/><rect class="cls-59" x="116.04" y="128.17" width="29.84" height="11.72"/><rect class="cls-60" x="116.7" y="128.17" width="29.84" height="11.72"/><rect class="cls-60" x="117.36" y="128.17" width="29.84" height="11.72"/><rect class="cls-61" x="118.02" y="128.17" width="29.84" height="11.72"/><rect class="cls-61" x="118.67" y="128.17" width="29.84" height="11.72"/><rect class="cls-62" x="119.33" y="128.17" width="29.84" height="11.72"/><rect class="cls-62" x="119.99" y="128.17" width="29.84" height="11.72"/><rect class="cls-63" x="120.65" y="128.17" width="29.84" height="11.72"/><rect class="cls-63" x="121.31" y="128.17" width="29.84" height="11.72"/><rect class="cls-64" x="121.97" y="128.17" width="29.84" height="11.72"/><rect class="cls-64" x="122.62" y="128.17" width="29.84" height="11.72"/><rect class="cls-65" x="123.28" y="128.17" width="29.84" height="11.72"/><rect class="cls-65" x="123.94" y="128.17" width="29.84" height="11.72"/><rect class="cls-66" x="124.6" y="128.17" width="29.84" height="11.72"/><rect class="cls-66" x="125.26" y="128.17" width="29.84" height="11.72"/><rect class="cls-67" x="125.91" y="128.17" width="29.84" height="11.72"/><rect class="cls-67" x="126.57" y="128.17" width="29.84" height="11.72"/><rect class="cls-68" x="127.23" y="128.17" width="29.84" height="11.72"/><rect class="cls-68" x="127.89" y="128.17" width="29.84" height="11.72"/><rect class="cls-69" x="128.55" y="128.17" width="29.84" height="11.72"/><rect class="cls-69" x="129.21" y="128.17" width="29.84" height="11.72"/><rect class="cls-70" x="129.86" y="128.17" width="29.84" height="11.72"/><rect class="cls-70" x="130.52" y="128.17" width="29.84" height="11.72"/><rect class="cls-71" x="131.18" y="128.17" width="29.84" height="11.72"/><rect class="cls-71" x="131.84" y="128.17" width="29.84" height="11.72"/><rect class="cls-72" x="132.5" y="128.17" width="29.84" height="11.72"/><rect class="cls-72" x="133.15" y="128.17" width="29.84" height="11.72"/><rect class="cls-73" x="133.81" y="128.17" width="29.84" height="11.72"/><rect class="cls-73" x="134.47" y="128.17" width="29.84" height="11.72"/><rect class="cls-74" x="135.13" y="128.17" width="29.84" height="11.72"/><rect class="cls-74" x="135.79" y="128.17" width="29.84" height="11.72"/><rect class="cls-75" x="136.45" y="128.17" width="29.84" height="11.72"/><rect class="cls-75" x="137.1" y="128.17" width="29.84" height="11.72"/><rect class="cls-76" x="137.76" y="128.17" width="29.84" height="11.72"/><rect class="cls-77" x="138.42" y="128.17" width="29.84" height="11.72"/><rect class="cls-78" x="139.08" y="128.17" width="29.84" height="11.72"/><rect class="cls-79" x="139.74" y="128.17" width="29.84" height="11.72"/><rect class="cls-79" x="140.39" y="128.17" width="29.84" height="11.72"/><rect class="cls-80" x="141.05" y="128.17" width="29.84" height="11.72"/><rect class="cls-80" x="141.71" y="128.17" width="29.84" height="11.72"/><rect class="cls-81" x="142.37" y="128.17" width="29.84" height="11.72"/><rect class="cls-81" x="143.03" y="128.17" width="29.84" height="11.72"/><rect class="cls-82" x="143.69" y="128.17" width="29.84" height="11.72"/><rect class="cls-82" x="144.34" y="128.17" width="29.84" height="11.72"/><rect class="cls-83" x="145" y="128.17" width="29.84" height="11.72"/><rect class="cls-84" x="145.66" y="128.17" width="29.84" height="11.72"/><rect class="cls-85" x="146.32" y="128.17" width="29.84" height="11.72"/><rect class="cls-85" x="146.98" y="128.17" width="29.84" height="11.72"/><rect class="cls-86" x="147.63" y="128.17" width="29.84" height="11.72"/><rect class="cls-86" x="148.29" y="128.17" width="29.84" height="11.72"/><rect class="cls-87" x="148.95" y="128.17" width="29.84" height="11.72"/><rect class="cls-87" x="149.61" y="128.17" width="29.84" height="11.72"/><rect class="cls-88" x="150.27" y="128.17" width="29.84" height="11.72"/><rect class="cls-88" x="150.93" y="128.17" width="29.84" height="11.72"/><rect class="cls-89" x="151.58" y="128.17" width="29.84" height="11.72"/><rect class="cls-90" x="152.24" y="128.17" width="29.84" height="11.72"/><rect class="cls-91" x="152.9" y="128.17" width="29.84" height="11.72"/><rect class="cls-91" x="153.56" y="128.17" width="29.84" height="11.72"/><rect class="cls-92" x="154.22" y="128.17" width="29.84" height="11.72"/><rect class="cls-92" x="154.87" y="128.17" width="29.84" height="11.72"/><rect class="cls-93" x="155.53" y="128.17" width="29.84" height="11.72"/><rect class="cls-93" x="156.19" y="128.17" width="29.84" height="11.72"/><rect class="cls-94" x="156.85" y="128.17" width="29.84" height="11.72"/><rect class="cls-94" x="157.51" y="128.17" width="29.84" height="11.72"/><rect class="cls-95" x="158.17" y="128.17" width="29.84" height="11.72"/><rect class="cls-96" x="158.82" y="128.17" width="29.84" height="11.72"/><rect class="cls-97" x="159.48" y="128.17" width="29.84" height="11.72"/><rect class="cls-97" x="160.14" y="128.17" width="29.84" height="11.72"/><rect class="cls-98" x="160.8" y="128.17" width="29.84" height="11.72"/><rect class="cls-98" x="161.46" y="128.17" width="29.84" height="11.72"/><rect class="cls-99" x="162.11" y="128.17" width="29.84" height="11.72"/><rect class="cls-99" x="162.77" y="128.17" width="29.84" height="11.72"/><rect class="cls-100" x="163.43" y="128.17" width="29.84" height="11.72"/><rect class="cls-100" x="164.09" y="128.17" width="29.84" height="11.72"/><rect class="cls-101" x="164.75" y="128.17" width="29.84" height="11.72"/><rect class="cls-102" x="165.41" y="128.17" width="29.84" height="11.72"/><rect class="cls-103" x="166.06" y="128.17" width="29.84" height="11.72"/><rect class="cls-103" x="166.72" y="128.17" width="29.84" height="11.72"/><rect class="cls-104" x="167.38" y="128.17" width="29.84" height="11.72"/><rect class="cls-104" x="168.04" y="128.17" width="29.84" height="11.72"/><rect class="cls-105" x="168.7" y="128.17" width="29.84" height="11.72"/><rect class="cls-105" x="169.35" y="128.17" width="29.84" height="11.72"/><rect class="cls-106" x="170.01" y="128.17" width="29.84" height="11.72"/><rect class="cls-106" x="170.67" y="128.17" width="29.84" height="11.72"/><rect class="cls-107" x="171.33" y="128.17" width="29.84" height="11.72"/><rect class="cls-108" x="171.99" y="128.17" width="29.84" height="11.72"/><rect class="cls-109" x="172.65" y="128.17" width="29.84" height="11.72"/><rect class="cls-109" x="173.3" y="128.17" width="29.84" height="11.72"/><rect class="cls-110" x="173.96" y="128.17" width="29.84" height="11.72"/><rect class="cls-110" x="174.62" y="128.17" width="29.84" height="11.72"/><rect class="cls-111" x="175.28" y="128.17" width="29.84" height="11.72"/><rect class="cls-111" x="175.94" y="128.17" width="29.84" height="11.72"/><rect class="cls-112" x="176.59" y="128.17" width="29.84" height="11.72"/><rect class="cls-112" x="177.25" y="128.17" width="29.84" height="11.72"/><rect class="cls-113" x="177.91" y="128.17" width="29.84" height="11.72"/><rect class="cls-114" x="178.57" y="128.17" width="29.84" height="11.72"/><rect class="cls-115" x="179.23" y="128.17" width="29.84" height="11.72"/><rect class="cls-115" x="179.89" y="128.17" width="29.84" height="11.72"/><rect class="cls-116" x="180.54" y="128.17" width="29.84" height="11.72"/><rect class="cls-116" x="181.2" y="128.17" width="29.84" height="11.72"/><rect class="cls-117" x="181.86" y="128.17" width="29.84" height="11.72"/><rect class="cls-1" x="301.94" y="254.06" width="7.5" height="10" transform="translate(-393.15 77.58) rotate(-45)"/><rect class="cls-2" x="302.09" y="254.21" width="7.5" height="10" transform="translate(-393.21 77.73) rotate(-45)"/><rect class="cls-2" x="302.24" y="254.36" width="7.5" height="10" transform="translate(-393.27 77.88) rotate(-45)"/><rect class="cls-3" x="302.39" y="254.52" width="7.5" height="10" transform="translate(-393.34 78.04) rotate(-45)"/><rect class="cls-3" x="302.54" y="254.67" width="7.5" height="10" transform="translate(-393.4 78.19) rotate(-45)"/><rect class="cls-4" x="302.7" y="254.82" width="7.5" height="10" transform="translate(-393.46 78.34) rotate(-45)"/><rect class="cls-5" x="302.85" y="254.97" width="7.5" height="10" transform="translate(-393.53 78.49) rotate(-45)"/><rect class="cls-6" x="303" y="255.13" width="7.5" height="10" transform="translate(-393.59 78.64) rotate(-45)"/><rect class="cls-6" x="303.15" y="255.28" width="7.5" height="10" transform="translate(-393.65 78.8) rotate(-45)"/><rect class="cls-7" x="303.3" y="255.43" width="7.5" height="10" transform="translate(-393.72 78.95) rotate(-45)"/><rect class="cls-7" x="303.46" y="255.58" width="7.5" height="10" transform="translate(-393.78 79.1) rotate(-45)"/><rect class="cls-8" x="303.61" y="255.73" width="7.5" height="10" transform="translate(-393.84 79.25) rotate(-45)"/><rect class="cls-8" x="303.76" y="255.89" width="7.5" height="10" transform="translate(-393.9 79.4) rotate(-45)"/><rect class="cls-9" x="303.91" y="256.04" width="7.5" height="10" transform="translate(-393.97 79.56) rotate(-45)"/><rect class="cls-9" x="304.06" y="256.19" width="7.5" height="10" transform="translate(-394.03 79.71) rotate(-45)"/><rect class="cls-10" x="304.22" y="256.34" width="7.5" height="10" transform="translate(-394.09 79.86) rotate(-45)"/><rect class="cls-11" x="304.37" y="256.49" width="7.5" height="10" transform="translate(-394.16 80.01) rotate(-45)"/><rect class="cls-12" x="304.52" y="256.65" width="7.5" height="10" transform="translate(-394.22 80.16) rotate(-45)"/><rect class="cls-12" x="304.67" y="256.8" width="7.5" height="10" transform="translate(-394.28 80.32) rotate(-45)"/><rect class="cls-13" x="304.83" y="256.95" width="7.5" height="10" transform="translate(-394.35 80.47) rotate(-45)"/><rect class="cls-13" x="304.98" y="257.1" width="7.5" height="10" transform="translate(-394.41 80.62) rotate(-45)"/><rect class="cls-14" x="305.13" y="257.25" width="7.5" height="10" transform="translate(-394.47 80.77) rotate(-45)"/><rect class="cls-14" x="305.28" y="257.41" width="7.5" height="10" transform="translate(-394.53 80.92) rotate(-45)"/><rect class="cls-15" x="305.43" y="257.56" width="7.5" height="10" transform="translate(-394.6 81.08) rotate(-45)"/><rect class="cls-15" x="305.59" y="257.71" width="7.5" height="10" transform="translate(-394.66 81.23) rotate(-45)"/><rect class="cls-16" x="305.74" y="257.86" width="7.5" height="10" transform="translate(-394.72 81.38) rotate(-45)"/><rect class="cls-17" x="305.89" y="258.01" width="7.5" height="10" transform="translate(-394.79 81.53) rotate(-45)"/><rect class="cls-18" x="306.04" y="258.17" width="7.5" height="10" transform="translate(-394.85 81.68) rotate(-45)"/><rect class="cls-18" x="306.19" y="258.32" width="7.5" height="10" transform="translate(-394.91 81.84) rotate(-45)"/><rect class="cls-19" x="306.35" y="258.47" width="7.5" height="10" transform="translate(-394.98 81.99) rotate(-45)"/><rect class="cls-19" x="306.5" y="258.62" width="7.5" height="10" transform="translate(-395.04 82.14) rotate(-45)"/><rect class="cls-20" x="306.65" y="258.77" width="7.5" height="10" transform="translate(-395.1 82.29) rotate(-45)"/><rect class="cls-20" x="306.8" y="258.93" width="7.5" height="10" transform="translate(-395.16 82.45) rotate(-45)"/><rect class="cls-21" x="306.95" y="259.08" width="7.5" height="10" transform="translate(-395.23 82.6) rotate(-45)"/><rect class="cls-21" x="307.11" y="259.23" width="7.5" height="10" transform="translate(-395.29 82.75) rotate(-45)"/><rect class="cls-22" x="307.26" y="259.38" width="7.5" height="10" transform="translate(-395.35 82.9) rotate(-45)"/><rect class="cls-23" x="307.41" y="259.54" width="7.5" height="10" transform="translate(-395.42 83.05) rotate(-45)"/><rect class="cls-24" x="307.56" y="259.69" width="7.5" height="10" transform="translate(-395.48 83.21) rotate(-45)"/><rect class="cls-24" x="307.71" y="259.84" width="7.5" height="10" transform="translate(-395.54 83.36) rotate(-45)"/><rect class="cls-25" x="307.87" y="259.99" width="7.5" height="10" transform="translate(-395.61 83.51) rotate(-45)"/><rect class="cls-25" x="308.02" y="260.14" width="7.5" height="10" transform="translate(-395.67 83.66) rotate(-45)"/><rect class="cls-26" x="308.17" y="260.3" width="7.5" height="10" transform="translate(-395.73 83.81) rotate(-45)"/><rect class="cls-26" x="308.32" y="260.45" width="7.5" height="10" transform="translate(-395.79 83.97) rotate(-45)"/><rect class="cls-27" x="308.48" y="260.6" width="7.5" height="10" transform="translate(-395.86 84.12) rotate(-45)"/><rect class="cls-27" x="308.63" y="260.75" width="7.5" height="10" transform="translate(-395.92 84.27) rotate(-45)"/><rect class="cls-28" x="308.78" y="260.9" width="7.5" height="10" transform="translate(-395.98 84.42) rotate(-45)"/><rect class="cls-29" x="308.93" y="261.06" width="7.5" height="10" transform="translate(-396.05 84.57) rotate(-45)"/><rect class="cls-30" x="309.08" y="261.21" width="7.5" height="10" transform="translate(-396.11 84.73) rotate(-45)"/><rect class="cls-30" x="309.24" y="261.36" width="7.5" height="10" transform="translate(-396.17 84.88) rotate(-45)"/><rect class="cls-31" x="309.39" y="261.51" width="7.5" height="10" transform="translate(-396.24 85.03) rotate(-45)"/><rect class="cls-31" x="309.54" y="261.66" width="7.5" height="10" transform="translate(-396.3 85.18) rotate(-45)"/><rect class="cls-32" x="309.69" y="261.82" width="7.5" height="10" transform="translate(-396.36 85.33) rotate(-45)"/><rect class="cls-32" x="309.84" y="261.97" width="7.5" height="10" transform="translate(-396.42 85.49) rotate(-45)"/><rect class="cls-33" x="310" y="262.12" width="7.5" height="10" transform="translate(-396.49 85.64) rotate(-45)"/><rect class="cls-33" x="310.15" y="262.27" width="7.5" height="10" transform="translate(-396.55 85.79) rotate(-45)"/><rect class="cls-34" x="310.3" y="262.42" width="7.5" height="10" transform="translate(-396.61 85.94) rotate(-45)"/><rect class="cls-35" x="310.45" y="262.58" width="7.5" height="10" transform="translate(-396.68 86.1) rotate(-45)"/><rect class="cls-36" x="310.6" y="262.73" width="7.5" height="10" transform="translate(-396.74 86.25) rotate(-45)"/><rect class="cls-36" x="310.76" y="262.88" width="7.5" height="10" transform="translate(-396.8 86.4) rotate(-45)"/><rect class="cls-37" x="310.91" y="263.03" width="7.5" height="10" transform="translate(-396.87 86.55) rotate(-45)"/><rect class="cls-37" x="311.06" y="263.19" width="7.5" height="10" transform="translate(-396.93 86.7) rotate(-45)"/><rect class="cls-38" x="311.21" y="263.34" width="7.5" height="10" transform="translate(-396.99 86.86) rotate(-45)"/><rect class="cls-38" x="311.36" y="263.49" width="7.5" height="10" transform="translate(-397.05 87.01) rotate(-45)"/><rect class="cls-39" x="311.52" y="263.64" width="7.5" height="10" transform="translate(-397.12 87.16) rotate(-45)"/><rect class="cls-39" x="311.67" y="263.79" width="7.5" height="10" transform="translate(-397.18 87.31) rotate(-45)"/><rect class="cls-40" x="311.82" y="263.95" width="7.5" height="10" transform="translate(-397.24 87.46) rotate(-45)"/><rect class="cls-41" x="311.97" y="264.1" width="7.5" height="10" transform="translate(-397.31 87.62) rotate(-45)"/><rect class="cls-42" x="312.13" y="264.25" width="7.5" height="10" transform="translate(-397.37 87.77) rotate(-45)"/><rect class="cls-43" x="312.28" y="264.4" width="7.5" height="10" transform="translate(-397.43 87.92) rotate(-45)"/><rect class="cls-43" x="312.43" y="264.55" width="7.5" height="10" transform="translate(-397.5 88.07) rotate(-45)"/><rect class="cls-44" x="312.58" y="264.71" width="7.5" height="10" transform="translate(-397.56 88.22) rotate(-45)"/><rect class="cls-44" x="312.73" y="264.86" width="7.5" height="10" transform="translate(-397.62 88.38) rotate(-45)"/><rect class="cls-45" x="312.89" y="265.01" width="7.5" height="10" transform="translate(-397.68 88.53) rotate(-45)"/><rect class="cls-45" x="313.04" y="265.16" width="7.5" height="10" transform="translate(-397.75 88.68) rotate(-45)"/><rect class="cls-46" x="313.19" y="265.31" width="7.5" height="10" transform="translate(-397.81 88.83) rotate(-45)"/><rect class="cls-46" x="313.34" y="265.47" width="7.5" height="10" transform="translate(-397.87 88.98) rotate(-45)"/><rect class="cls-47" x="313.49" y="265.62" width="7.5" height="10" transform="translate(-397.94 89.14) rotate(-45)"/><rect class="cls-47" x="313.65" y="265.77" width="7.5" height="10" transform="translate(-398 89.29) rotate(-45)"/><rect class="cls-48" x="313.8" y="265.92" width="7.5" height="10" transform="translate(-398.06 89.44) rotate(-45)"/><rect class="cls-48" x="313.95" y="266.07" width="7.5" height="10" transform="translate(-398.13 89.59) rotate(-45)"/><rect class="cls-49" x="314.1" y="266.23" width="7.5" height="10" transform="translate(-398.19 89.74) rotate(-45)"/><rect class="cls-49" x="314.25" y="266.38" width="7.5" height="10" transform="translate(-398.25 89.9) rotate(-45)"/><rect class="cls-50" x="314.41" y="266.53" width="7.5" height="10" transform="translate(-398.31 90.05) rotate(-45)"/><rect class="cls-50" x="314.56" y="266.68" width="7.5" height="10" transform="translate(-398.38 90.2) rotate(-45)"/><rect class="cls-51" x="314.71" y="266.83" width="7.5" height="10" transform="translate(-398.44 90.35) rotate(-45)"/><rect class="cls-51" x="314.86" y="266.99" width="7.5" height="10" transform="translate(-398.5 90.51) rotate(-45)"/><rect class="cls-52" x="315.01" y="267.14" width="7.5" height="10" transform="translate(-398.57 90.66) rotate(-45)"/><rect class="cls-52" x="315.17" y="267.29" width="7.5" height="10" transform="translate(-398.63 90.81) rotate(-45)"/><rect class="cls-53" x="315.32" y="267.44" width="7.5" height="10" transform="translate(-398.69 90.96) rotate(-45)"/><rect class="cls-53" x="315.47" y="267.6" width="7.5" height="10" transform="translate(-398.76 91.11) rotate(-45)"/><rect class="cls-54" x="315.62" y="267.75" width="7.5" height="10" transform="translate(-398.82 91.27) rotate(-45)"/><rect class="cls-54" x="315.77" y="267.9" width="7.5" height="10" transform="translate(-398.88 91.42) rotate(-45)"/><rect class="cls-55" x="315.93" y="268.05" width="7.5" height="10" transform="translate(-398.94 91.57) rotate(-45)"/><rect class="cls-55" x="316.08" y="268.2" width="7.5" height="10" transform="translate(-399.01 91.72) rotate(-45)"/><rect class="cls-56" x="316.23" y="268.36" width="7.5" height="10" transform="translate(-399.07 91.87) rotate(-45)"/><rect class="cls-56" x="316.38" y="268.51" width="7.5" height="10" transform="translate(-399.13 92.03) rotate(-45)"/><rect class="cls-57" x="316.54" y="268.66" width="7.5" height="10" transform="translate(-399.2 92.18) rotate(-45)"/><rect class="cls-57" x="316.69" y="268.81" width="7.5" height="10" transform="translate(-399.26 92.33) rotate(-45)"/><rect class="cls-58" x="316.84" y="268.96" width="7.5" height="10" transform="translate(-399.32 92.48) rotate(-45)"/><rect class="cls-58" x="316.99" y="269.12" width="7.5" height="10" transform="translate(-399.39 92.63) rotate(-45)"/><rect class="cls-59" x="317.14" y="269.27" width="7.5" height="10" transform="translate(-399.45 92.79) rotate(-45)"/><rect class="cls-59" x="317.3" y="269.42" width="7.5" height="10" transform="translate(-399.51 92.94) rotate(-45)"/><rect class="cls-60" x="317.45" y="269.57" width="7.5" height="10" transform="translate(-399.57 93.09) rotate(-45)"/><rect class="cls-60" x="317.6" y="269.72" width="7.5" height="10" transform="translate(-399.64 93.24) rotate(-45)"/><rect class="cls-61" x="317.75" y="269.88" width="7.5" height="10" transform="translate(-399.7 93.39) rotate(-45)"/><rect class="cls-61" x="317.9" y="270.03" width="7.5" height="10" transform="translate(-399.76 93.55) rotate(-45)"/><rect class="cls-62" x="318.06" y="270.18" width="7.5" height="10" transform="translate(-399.83 93.7) rotate(-45)"/><rect class="cls-62" x="318.21" y="270.33" width="7.5" height="10" transform="translate(-399.89 93.85) rotate(-45)"/><rect class="cls-63" x="318.36" y="270.48" width="7.5" height="10" transform="translate(-399.95 94) rotate(-45)"/><rect class="cls-63" x="318.51" y="270.64" width="7.5" height="10" transform="translate(-400.02 94.16) rotate(-45)"/><rect class="cls-64" x="318.66" y="270.79" width="7.5" height="10" transform="translate(-400.08 94.31) rotate(-45)"/><rect class="cls-64" x="318.82" y="270.94" width="7.5" height="10" transform="translate(-400.14 94.46) rotate(-45)"/><rect class="cls-65" x="318.97" y="271.09" width="7.5" height="10" transform="translate(-400.2 94.61) rotate(-45)"/><rect class="cls-65" x="319.12" y="271.25" width="7.5" height="10" transform="translate(-400.27 94.76) rotate(-45)"/><rect class="cls-66" x="319.27" y="271.4" width="7.5" height="10" transform="translate(-400.33 94.92) rotate(-45)"/><rect class="cls-66" x="319.42" y="271.55" width="7.5" height="10" transform="translate(-400.39 95.07) rotate(-45)"/><rect class="cls-67" x="319.58" y="271.7" width="7.5" height="10" transform="translate(-400.46 95.22) rotate(-45)"/><rect class="cls-67" x="319.73" y="271.85" width="7.5" height="10" transform="translate(-400.52 95.37) rotate(-45)"/><rect class="cls-68" x="319.88" y="272.01" width="7.5" height="10" transform="translate(-400.58 95.52) rotate(-45)"/><rect class="cls-68" x="320.03" y="272.16" width="7.5" height="10" transform="translate(-400.64 95.68) rotate(-45)"/><rect class="cls-69" x="320.19" y="272.31" width="7.5" height="10" transform="translate(-400.71 95.83) rotate(-45)"/><rect class="cls-69" x="320.34" y="272.46" width="7.5" height="10" transform="translate(-400.77 95.98) rotate(-45)"/><rect class="cls-70" x="320.49" y="272.61" width="7.5" height="10" transform="translate(-400.83 96.13) rotate(-45)"/><rect class="cls-70" x="320.64" y="272.77" width="7.5" height="10" transform="translate(-400.9 96.28) rotate(-45)"/><rect class="cls-71" x="320.79" y="272.92" width="7.5" height="10" transform="translate(-400.96 96.44) rotate(-45)"/><rect class="cls-71" x="320.95" y="273.07" width="7.5" height="10" transform="translate(-401.02 96.59) rotate(-45)"/><rect class="cls-72" x="321.1" y="273.22" width="7.5" height="10" transform="translate(-401.09 96.74) rotate(-45)"/><rect class="cls-72" x="321.25" y="273.37" width="7.5" height="10" transform="translate(-401.15 96.89) rotate(-45)"/><rect class="cls-73" x="321.4" y="273.53" width="7.5" height="10" transform="translate(-401.21 97.04) rotate(-45)"/><rect class="cls-73" x="321.55" y="273.68" width="7.5" height="10" transform="translate(-401.27 97.2) rotate(-45)"/><rect class="cls-74" x="321.71" y="273.83" width="7.5" height="10" transform="translate(-401.34 97.35) rotate(-45)"/><rect class="cls-74" x="321.86" y="273.98" width="7.5" height="10" transform="translate(-401.4 97.5) rotate(-45)"/><rect class="cls-75" x="322.01" y="274.13" width="7.5" height="10" transform="translate(-401.46 97.65) rotate(-45)"/><rect class="cls-75" x="322.16" y="274.29" width="7.5" height="10" transform="translate(-401.53 97.81) rotate(-45)"/><rect class="cls-76" x="322.31" y="274.44" width="7.5" height="10" transform="translate(-401.59 97.96) rotate(-45)"/><rect class="cls-77" x="322.47" y="274.59" width="7.5" height="10" transform="translate(-401.65 98.11) rotate(-45)"/><rect class="cls-78" x="322.62" y="274.74" width="7.5" height="10" transform="translate(-401.72 98.26) rotate(-45)"/><rect class="cls-79" x="322.77" y="274.9" width="7.5" height="10" transform="translate(-401.78 98.41) rotate(-45)"/><rect class="cls-79" x="322.92" y="275.05" width="7.5" height="10" transform="translate(-401.84 98.57) rotate(-45)"/><rect class="cls-80" x="323.07" y="275.2" width="7.5" height="10" transform="translate(-401.9 98.72) rotate(-45)"/><rect class="cls-80" x="323.23" y="275.35" width="7.5" height="10" transform="translate(-401.97 98.87) rotate(-45)"/><rect class="cls-81" x="323.38" y="275.5" width="7.5" height="10" transform="translate(-402.03 99.02) rotate(-45)"/><rect class="cls-81" x="323.53" y="275.66" width="7.5" height="10" transform="translate(-402.09 99.17) rotate(-45)"/><rect class="cls-82" x="323.68" y="275.81" width="7.5" height="10" transform="translate(-402.16 99.33) rotate(-45)"/><rect class="cls-82" x="323.83" y="275.96" width="7.5" height="10" transform="translate(-402.22 99.48) rotate(-45)"/><rect class="cls-83" x="323.99" y="276.11" width="7.5" height="10" transform="translate(-402.28 99.63) rotate(-45)"/><rect class="cls-84" x="324.14" y="276.26" width="7.5" height="10" transform="translate(-402.35 99.78) rotate(-45)"/><rect class="cls-85" x="324.29" y="276.42" width="7.5" height="10" transform="translate(-402.41 99.93) rotate(-45)"/><rect class="cls-85" x="324.44" y="276.57" width="7.5" height="10" transform="translate(-402.47 100.09) rotate(-45)"/><rect class="cls-86" x="324.6" y="276.72" width="7.5" height="10" transform="translate(-402.53 100.24) rotate(-45)"/><rect class="cls-86" x="324.75" y="276.87" width="7.5" height="10" transform="translate(-402.6 100.39) rotate(-45)"/><rect class="cls-87" x="324.9" y="277.02" width="7.5" height="10" transform="translate(-402.66 100.54) rotate(-45)"/><rect class="cls-87" x="325.05" y="277.18" width="7.5" height="10" transform="translate(-402.72 100.69) rotate(-45)"/><rect class="cls-88" x="325.2" y="277.33" width="7.5" height="10" transform="translate(-402.79 100.85) rotate(-45)"/><rect class="cls-88" x="325.36" y="277.48" width="7.5" height="10" transform="translate(-402.85 101) rotate(-45)"/><rect class="cls-89" x="325.51" y="277.63" width="7.5" height="10" transform="translate(-402.91 101.15) rotate(-45)"/><rect class="cls-90" x="325.66" y="277.78" width="7.5" height="10" transform="translate(-402.98 101.3) rotate(-45)"/><rect class="cls-91" x="325.81" y="277.94" width="7.5" height="10" transform="translate(-403.04 101.45) rotate(-45)"/><rect class="cls-91" x="325.96" y="278.09" width="7.5" height="10" transform="translate(-403.1 101.61) rotate(-45)"/><rect class="cls-92" x="326.12" y="278.24" width="7.5" height="10" transform="translate(-403.16 101.76) rotate(-45)"/><rect class="cls-92" x="326.27" y="278.39" width="7.5" height="10" transform="translate(-403.23 101.91) rotate(-45)"/><rect class="cls-93" x="326.42" y="278.54" width="7.5" height="10" transform="translate(-403.29 102.06) rotate(-45)"/><rect class="cls-93" x="326.57" y="278.7" width="7.5" height="10" transform="translate(-403.35 102.22) rotate(-45)"/><rect class="cls-94" x="326.72" y="278.85" width="7.5" height="10" transform="translate(-403.42 102.37) rotate(-45)"/><rect class="cls-94" x="326.88" y="279" width="7.5" height="10" transform="translate(-403.48 102.52) rotate(-45)"/><rect class="cls-95" x="327.03" y="279.15" width="7.5" height="10" transform="translate(-403.54 102.67) rotate(-45)"/><rect class="cls-96" x="327.18" y="279.31" width="7.5" height="10" transform="translate(-403.61 102.82) rotate(-45)"/><rect class="cls-97" x="327.33" y="279.46" width="7.5" height="10" transform="translate(-403.67 102.98) rotate(-45)"/><rect class="cls-97" x="327.48" y="279.61" width="7.5" height="10" transform="translate(-403.73 103.13) rotate(-45)"/><rect class="cls-98" x="327.64" y="279.76" width="7.5" height="10" transform="translate(-403.79 103.28) rotate(-45)"/><rect class="cls-98" x="327.79" y="279.91" width="7.5" height="10" transform="translate(-403.86 103.43) rotate(-45)"/><rect class="cls-99" x="327.94" y="280.07" width="7.5" height="10" transform="translate(-403.92 103.58) rotate(-45)"/><rect class="cls-99" x="328.09" y="280.22" width="7.5" height="10" transform="translate(-403.98 103.74) rotate(-45)"/><rect class="cls-100" x="328.25" y="280.37" width="7.5" height="10" transform="translate(-404.05 103.89) rotate(-45)"/><rect class="cls-100" x="328.4" y="280.52" width="7.5" height="10" transform="translate(-404.11 104.04) rotate(-45)"/><rect class="cls-101" x="328.55" y="280.67" width="7.5" height="10" transform="translate(-404.17 104.19) rotate(-45)"/><rect class="cls-102" x="328.7" y="280.83" width="7.5" height="10" transform="translate(-404.24 104.34) rotate(-45)"/><rect class="cls-103" x="328.85" y="280.98" width="7.5" height="10" transform="translate(-404.3 104.5) rotate(-45)"/><rect class="cls-103" x="329.01" y="281.13" width="7.5" height="10" transform="translate(-404.36 104.65) rotate(-45)"/><rect class="cls-104" x="329.16" y="281.28" width="7.5" height="10" transform="translate(-404.42 104.8) rotate(-45)"/><rect class="cls-104" x="329.31" y="281.43" width="7.5" height="10" transform="translate(-404.49 104.95) rotate(-45)"/><rect class="cls-105" x="329.46" y="281.59" width="7.5" height="10" transform="translate(-404.55 105.1) rotate(-45)"/><rect class="cls-105" x="329.61" y="281.74" width="7.5" height="10" transform="translate(-404.61 105.26) rotate(-45)"/><rect class="cls-106" x="329.77" y="281.89" width="7.5" height="10" transform="translate(-404.68 105.41) rotate(-45)"/><rect class="cls-106" x="329.92" y="282.04" width="7.5" height="10" transform="translate(-404.74 105.56) rotate(-45)"/><rect class="cls-107" x="330.07" y="282.19" width="7.5" height="10" transform="translate(-404.8 105.71) rotate(-45)"/><rect class="cls-108" x="330.22" y="282.35" width="7.5" height="10" transform="translate(-404.87 105.87) rotate(-45)"/><rect class="cls-109" x="330.37" y="282.5" width="7.5" height="10" transform="translate(-404.93 106.02) rotate(-45)"/><rect class="cls-109" x="330.53" y="282.65" width="7.5" height="10" transform="translate(-404.99 106.17) rotate(-45)"/><rect class="cls-110" x="330.68" y="282.8" width="7.5" height="10" transform="translate(-405.05 106.32) rotate(-45)"/><rect class="cls-110" x="330.83" y="282.96" width="7.5" height="10" transform="translate(-405.12 106.47) rotate(-45)"/><rect class="cls-111" x="330.98" y="283.11" width="7.5" height="10" transform="translate(-405.18 106.63) rotate(-45)"/><rect class="cls-111" x="331.13" y="283.26" width="7.5" height="10" transform="translate(-405.24 106.78) rotate(-45)"/><rect class="cls-112" x="331.29" y="283.41" width="7.5" height="10" transform="translate(-405.31 106.93) rotate(-45)"/><rect class="cls-112" x="331.44" y="283.56" width="7.5" height="10" transform="translate(-405.37 107.08) rotate(-45)"/><rect class="cls-113" x="331.59" y="283.72" width="7.5" height="10" transform="translate(-405.43 107.23) rotate(-45)"/><rect class="cls-114" x="331.74" y="283.87" width="7.5" height="10" transform="translate(-405.5 107.39) rotate(-45)"/><rect class="cls-115" x="331.89" y="284.02" width="7.5" height="10" transform="translate(-405.56 107.54) rotate(-45)"/><rect class="cls-115" x="332.05" y="284.17" width="7.5" height="10" transform="translate(-405.62 107.69) rotate(-45)"/><rect class="cls-116" x="332.2" y="284.32" width="7.5" height="10" transform="translate(-405.68 107.84) rotate(-45)"/><rect class="cls-116" x="332.35" y="284.48" width="7.5" height="10" transform="translate(-405.75 107.99) rotate(-45)"/><rect class="cls-117" x="332.5" y="284.63" width="7.5" height="10" transform="translate(-405.81 108.15) rotate(-45)"/><text class="cls-118" transform="translate(58.56 109.14)"><tspan class="cls-119">L</tspan><tspan x="65.41" y="0">B</tspan></text><rect class="cls-1" x="300.69" y="318.32" width="10" height="7.5" transform="translate(-437.71 96.03) rotate(-45)"/><rect class="cls-2" x="300.84" y="318.17" width="10" height="7.5" transform="translate(-437.55 96.1) rotate(-45)"/><rect class="cls-2" x="300.99" y="318.02" width="10" height="7.5" transform="translate(-437.4 96.16) rotate(-45)"/><rect class="cls-3" x="301.14" y="317.87" width="10" height="7.5" transform="translate(-437.25 96.22) rotate(-45)"/><rect class="cls-3" x="301.3" y="317.71" width="10" height="7.5" transform="translate(-437.1 96.29) rotate(-45)"/><rect class="cls-4" x="301.45" y="317.56" width="10" height="7.5" transform="translate(-436.95 96.35) rotate(-45)"/><rect class="cls-5" x="301.6" y="317.41" width="10" height="7.5" transform="translate(-436.79 96.41) rotate(-45)"/><rect class="cls-6" x="301.75" y="317.26" width="10" height="7.5" transform="translate(-436.64 96.48) rotate(-45)"/><rect class="cls-6" x="301.9" y="317.11" width="10" height="7.5" transform="translate(-436.49 96.54) rotate(-45)"/><rect class="cls-7" x="302.06" y="316.95" width="10" height="7.5" transform="translate(-436.34 96.6) rotate(-45)"/><rect class="cls-7" x="302.21" y="316.8" width="10" height="7.5" transform="translate(-436.19 96.66) rotate(-45)"/><rect class="cls-8" x="302.36" y="316.65" width="10" height="7.5" transform="translate(-436.03 96.73) rotate(-45)"/><rect class="cls-8" x="302.51" y="316.5" width="10" height="7.5" transform="translate(-435.88 96.79) rotate(-45)"/><rect class="cls-9" x="302.67" y="316.35" width="10" height="7.5" transform="translate(-435.73 96.85) rotate(-45)"/><rect class="cls-9" x="302.82" y="316.19" width="10" height="7.5" transform="translate(-435.58 96.92) rotate(-45)"/><rect class="cls-10" x="302.97" y="316.04" width="10" height="7.5" transform="translate(-435.43 96.98) rotate(-45)"/><rect class="cls-11" x="303.12" y="315.89" width="10" height="7.5" transform="translate(-435.27 97.04) rotate(-45)"/><rect class="cls-12" x="303.27" y="315.74" width="10" height="7.5" transform="translate(-435.12 97.11) rotate(-45)"/><rect class="cls-12" x="303.43" y="315.58" width="10" height="7.5" transform="translate(-434.97 97.17) rotate(-45)"/><rect class="cls-13" x="303.58" y="315.43" width="10" height="7.5" transform="translate(-434.82 97.23) rotate(-45)"/><rect class="cls-13" x="303.73" y="315.28" width="10" height="7.5" transform="translate(-434.66 97.29) rotate(-45)"/><rect class="cls-14" x="303.88" y="315.13" width="10" height="7.5" transform="translate(-434.51 97.36) rotate(-45)"/><rect class="cls-14" x="304.03" y="314.98" width="10" height="7.5" transform="translate(-434.36 97.42) rotate(-45)"/><rect class="cls-15" x="304.19" y="314.82" width="10" height="7.5" transform="translate(-434.21 97.48) rotate(-45)"/><rect class="cls-15" x="304.34" y="314.67" width="10" height="7.5" transform="translate(-434.06 97.55) rotate(-45)"/><rect class="cls-16" x="304.49" y="314.52" width="10" height="7.5" transform="translate(-433.9 97.61) rotate(-45)"/><rect class="cls-17" x="304.64" y="314.37" width="10" height="7.5" transform="translate(-433.75 97.67) rotate(-45)"/><rect class="cls-18" x="304.79" y="314.22" width="10" height="7.5" transform="translate(-433.6 97.74) rotate(-45)"/><rect class="cls-18" x="304.95" y="314.06" width="10" height="7.5" transform="translate(-433.45 97.8) rotate(-45)"/><rect class="cls-19" x="305.1" y="313.91" width="10" height="7.5" transform="translate(-433.3 97.86) rotate(-45)"/><rect class="cls-19" x="305.25" y="313.76" width="10" height="7.5" transform="translate(-433.14 97.92) rotate(-45)"/><rect class="cls-20" x="305.4" y="313.61" width="10" height="7.5" transform="translate(-432.99 97.99) rotate(-45)"/><rect class="cls-20" x="305.55" y="313.46" width="10" height="7.5" transform="translate(-432.84 98.05) rotate(-45)"/><rect class="cls-21" x="305.71" y="313.3" width="10" height="7.5" transform="translate(-432.69 98.11) rotate(-45)"/><rect class="cls-21" x="305.86" y="313.15" width="10" height="7.5" transform="translate(-432.54 98.18) rotate(-45)"/><rect class="cls-22" x="306.01" y="313" width="10" height="7.5" transform="translate(-432.38 98.24) rotate(-45)"/><rect class="cls-23" x="306.16" y="312.85" width="10" height="7.5" transform="translate(-432.23 98.3) rotate(-45)"/><rect class="cls-24" x="306.32" y="312.7" width="10" height="7.5" transform="translate(-432.08 98.37) rotate(-45)"/><rect class="cls-24" x="306.47" y="312.54" width="10" height="7.5" transform="translate(-431.93 98.43) rotate(-45)"/><rect class="cls-25" x="306.62" y="312.39" width="10" height="7.5" transform="translate(-431.78 98.49) rotate(-45)"/><rect class="cls-25" x="306.77" y="312.24" width="10" height="7.5" transform="translate(-431.62 98.55) rotate(-45)"/><rect class="cls-26" x="306.92" y="312.09" width="10" height="7.5" transform="translate(-431.47 98.62) rotate(-45)"/><rect class="cls-26" x="307.08" y="311.93" width="10" height="7.5" transform="translate(-431.32 98.68) rotate(-45)"/><rect class="cls-27" x="307.23" y="311.78" width="10" height="7.5" transform="translate(-431.17 98.74) rotate(-45)"/><rect class="cls-27" x="307.38" y="311.63" width="10" height="7.5" transform="translate(-431.02 98.81) rotate(-45)"/><rect class="cls-28" x="307.53" y="311.48" width="10" height="7.5" transform="translate(-430.86 98.87) rotate(-45)"/><rect class="cls-29" x="307.68" y="311.33" width="10" height="7.5" transform="translate(-430.71 98.93) rotate(-45)"/><rect class="cls-30" x="307.84" y="311.17" width="10" height="7.5" transform="translate(-430.56 99) rotate(-45)"/><rect class="cls-30" x="307.99" y="311.02" width="10" height="7.5" transform="translate(-430.41 99.06) rotate(-45)"/><rect class="cls-31" x="308.14" y="310.87" width="10" height="7.5" transform="translate(-430.25 99.12) rotate(-45)"/><rect class="cls-31" x="308.29" y="310.72" width="10" height="7.5" transform="translate(-430.1 99.18) rotate(-45)"/><rect class="cls-32" x="308.44" y="310.57" width="10" height="7.5" transform="translate(-429.95 99.25) rotate(-45)"/><rect class="cls-32" x="308.6" y="310.41" width="10" height="7.5" transform="translate(-429.8 99.31) rotate(-45)"/><rect class="cls-33" x="308.75" y="310.26" width="10" height="7.5" transform="translate(-429.65 99.37) rotate(-45)"/><rect class="cls-33" x="308.9" y="310.11" width="10" height="7.5" transform="translate(-429.49 99.44) rotate(-45)"/><rect class="cls-34" x="309.05" y="309.96" width="10" height="7.5" transform="translate(-429.34 99.5) rotate(-45)"/><rect class="cls-35" x="309.2" y="309.81" width="10" height="7.5" transform="translate(-429.19 99.56) rotate(-45)"/><rect class="cls-36" x="309.36" y="309.65" width="10" height="7.5" transform="translate(-429.04 99.63) rotate(-45)"/><rect class="cls-36" x="309.51" y="309.5" width="10" height="7.5" transform="translate(-428.89 99.69) rotate(-45)"/><rect class="cls-37" x="309.66" y="309.35" width="10" height="7.5" transform="translate(-428.73 99.75) rotate(-45)"/><rect class="cls-37" x="309.81" y="309.2" width="10" height="7.5" transform="translate(-428.58 99.81) rotate(-45)"/><rect class="cls-38" x="309.96" y="309.05" width="10" height="7.5" transform="translate(-428.43 99.88) rotate(-45)"/><rect class="cls-38" x="310.12" y="308.89" width="10" height="7.5" transform="translate(-428.28 99.94) rotate(-45)"/><rect class="cls-39" x="310.27" y="308.74" width="10" height="7.5" transform="translate(-428.13 100) rotate(-45)"/><rect class="cls-39" x="310.42" y="308.59" width="10" height="7.5" transform="translate(-427.97 100.07) rotate(-45)"/><rect class="cls-40" x="310.57" y="308.44" width="10" height="7.5" transform="translate(-427.82 100.13) rotate(-45)"/><rect class="cls-41" x="310.73" y="308.29" width="10" height="7.5" transform="translate(-427.67 100.19) rotate(-45)"/><rect class="cls-42" x="310.88" y="308.13" width="10" height="7.5" transform="translate(-427.52 100.26) rotate(-45)"/><rect class="cls-43" x="311.03" y="307.98" width="10" height="7.5" transform="translate(-427.37 100.32) rotate(-45)"/><rect class="cls-43" x="311.18" y="307.83" width="10" height="7.5" transform="translate(-427.21 100.38) rotate(-45)"/><rect class="cls-44" x="311.33" y="307.68" width="10" height="7.5" transform="translate(-427.06 100.44) rotate(-45)"/><rect class="cls-44" x="311.49" y="307.52" width="10" height="7.5" transform="translate(-426.91 100.51) rotate(-45)"/><rect class="cls-45" x="311.64" y="307.37" width="10" height="7.5" transform="translate(-426.76 100.57) rotate(-45)"/><rect class="cls-45" x="311.79" y="307.22" width="10" height="7.5" transform="translate(-426.6 100.63) rotate(-45)"/><rect class="cls-46" x="311.94" y="307.07" width="10" height="7.5" transform="translate(-426.45 100.7) rotate(-45)"/><rect class="cls-46" x="312.09" y="306.92" width="10" height="7.5" transform="translate(-426.3 100.76) rotate(-45)"/><rect class="cls-47" x="312.25" y="306.76" width="10" height="7.5" transform="translate(-426.15 100.82) rotate(-45)"/><rect class="cls-47" x="312.4" y="306.61" width="10" height="7.5" transform="translate(-426 100.89) rotate(-45)"/><rect class="cls-48" x="312.55" y="306.46" width="10" height="7.5" transform="translate(-425.84 100.95) rotate(-45)"/><rect class="cls-48" x="312.7" y="306.31" width="10" height="7.5" transform="translate(-425.69 101.01) rotate(-45)"/><rect class="cls-49" x="312.85" y="306.16" width="10" height="7.5" transform="translate(-425.54 101.07) rotate(-45)"/><rect class="cls-49" x="313.01" y="306" width="10" height="7.5" transform="translate(-425.39 101.14) rotate(-45)"/><rect class="cls-50" x="313.16" y="305.85" width="10" height="7.5" transform="translate(-425.24 101.2) rotate(-45)"/><rect class="cls-50" x="313.31" y="305.7" width="10" height="7.5" transform="translate(-425.08 101.26) rotate(-45)"/><rect class="cls-51" x="313.46" y="305.55" width="10" height="7.5" transform="translate(-424.93 101.33) rotate(-45)"/><rect class="cls-51" x="313.61" y="305.4" width="10" height="7.5" transform="translate(-424.78 101.39) rotate(-45)"/><rect class="cls-52" x="313.77" y="305.24" width="10" height="7.5" transform="translate(-424.63 101.45) rotate(-45)"/><rect class="cls-52" x="313.92" y="305.09" width="10" height="7.5" transform="translate(-424.48 101.52) rotate(-45)"/><rect class="cls-53" x="314.07" y="304.94" width="10" height="7.5" transform="translate(-424.32 101.58) rotate(-45)"/><rect class="cls-53" x="314.22" y="304.79" width="10" height="7.5" transform="translate(-424.17 101.64) rotate(-45)"/><rect class="cls-54" x="314.38" y="304.64" width="10" height="7.5" transform="translate(-424.02 101.7) rotate(-45)"/><rect class="cls-54" x="314.53" y="304.48" width="10" height="7.5" transform="translate(-423.87 101.77) rotate(-45)"/><rect class="cls-55" x="314.68" y="304.33" width="10" height="7.5" transform="translate(-423.72 101.83) rotate(-45)"/><rect class="cls-55" x="314.83" y="304.18" width="10" height="7.5" transform="translate(-423.56 101.89) rotate(-45)"/><rect class="cls-56" x="314.98" y="304.03" width="10" height="7.5" transform="translate(-423.41 101.96) rotate(-45)"/><rect class="cls-56" x="315.14" y="303.87" width="10" height="7.5" transform="translate(-423.26 102.02) rotate(-45)"/><rect class="cls-57" x="315.29" y="303.72" width="10" height="7.5" transform="translate(-423.11 102.08) rotate(-45)"/><rect class="cls-57" x="315.44" y="303.57" width="10" height="7.5" transform="translate(-422.96 102.14) rotate(-45)"/><rect class="cls-58" x="315.59" y="303.42" width="10" height="7.5" transform="translate(-422.8 102.21) rotate(-45)"/><rect class="cls-58" x="315.74" y="303.27" width="10" height="7.5" transform="translate(-422.65 102.27) rotate(-45)"/><rect class="cls-59" x="315.9" y="303.11" width="10" height="7.5" transform="translate(-422.5 102.33) rotate(-45)"/><rect class="cls-59" x="316.05" y="302.96" width="10" height="7.5" transform="translate(-422.35 102.4) rotate(-45)"/><rect class="cls-60" x="316.2" y="302.81" width="10" height="7.5" transform="translate(-422.19 102.46) rotate(-45)"/><rect class="cls-60" x="316.35" y="302.66" width="10" height="7.5" transform="translate(-422.04 102.52) rotate(-45)"/><rect class="cls-61" x="316.5" y="302.51" width="10" height="7.5" transform="translate(-421.89 102.59) rotate(-45)"/><rect class="cls-61" x="316.66" y="302.35" width="10" height="7.5" transform="translate(-421.74 102.65) rotate(-45)"/><rect class="cls-62" x="316.81" y="302.2" width="10" height="7.5" transform="translate(-421.59 102.71) rotate(-45)"/><rect class="cls-62" x="316.96" y="302.05" width="10" height="7.5" transform="translate(-421.43 102.77) rotate(-45)"/><rect class="cls-63" x="317.11" y="301.9" width="10" height="7.5" transform="translate(-421.28 102.84) rotate(-45)"/><rect class="cls-63" x="317.26" y="301.75" width="10" height="7.5" transform="translate(-421.13 102.9) rotate(-45)"/><rect class="cls-64" x="317.42" y="301.59" width="10" height="7.5" transform="translate(-420.98 102.96) rotate(-45)"/><rect class="cls-64" x="317.57" y="301.44" width="10" height="7.5" transform="translate(-420.83 103.03) rotate(-45)"/><rect class="cls-65" x="317.72" y="301.29" width="10" height="7.5" transform="translate(-420.67 103.09) rotate(-45)"/><rect class="cls-65" x="317.87" y="301.14" width="10" height="7.5" transform="translate(-420.52 103.15) rotate(-45)"/><rect class="cls-66" x="318.03" y="300.99" width="10" height="7.5" transform="translate(-420.37 103.22) rotate(-45)"/><rect class="cls-66" x="318.18" y="300.83" width="10" height="7.5" transform="translate(-420.22 103.28) rotate(-45)"/><rect class="cls-67" x="318.33" y="300.68" width="10" height="7.5" transform="translate(-420.07 103.34) rotate(-45)"/><rect class="cls-67" x="318.48" y="300.53" width="10" height="7.5" transform="translate(-419.91 103.4) rotate(-45)"/><rect class="cls-68" x="318.63" y="300.38" width="10" height="7.5" transform="translate(-419.76 103.47) rotate(-45)"/><rect class="cls-68" x="318.79" y="300.23" width="10" height="7.5" transform="translate(-419.61 103.53) rotate(-45)"/><rect class="cls-69" x="318.94" y="300.07" width="10" height="7.5" transform="translate(-419.46 103.59) rotate(-45)"/><rect class="cls-69" x="319.09" y="299.92" width="10" height="7.5" transform="translate(-419.31 103.66) rotate(-45)"/><rect class="cls-70" x="319.24" y="299.77" width="10" height="7.5" transform="translate(-419.15 103.72) rotate(-45)"/><rect class="cls-70" x="319.39" y="299.62" width="10" height="7.5" transform="translate(-419 103.78) rotate(-45)"/><rect class="cls-71" x="319.55" y="299.46" width="10" height="7.5" transform="translate(-418.85 103.85) rotate(-45)"/><rect class="cls-71" x="319.7" y="299.31" width="10" height="7.5" transform="translate(-418.7 103.91) rotate(-45)"/><rect class="cls-72" x="319.85" y="299.16" width="10" height="7.5" transform="translate(-418.54 103.97) rotate(-45)"/><rect class="cls-72" x="320" y="299.01" width="10" height="7.5" transform="translate(-418.39 104.03) rotate(-45)"/><rect class="cls-73" x="320.15" y="298.86" width="10" height="7.5" transform="translate(-418.24 104.1) rotate(-45)"/><rect class="cls-73" x="320.31" y="298.7" width="10" height="7.5" transform="translate(-418.09 104.16) rotate(-45)"/><rect class="cls-74" x="320.46" y="298.55" width="10" height="7.5" transform="translate(-417.94 104.22) rotate(-45)"/><rect class="cls-74" x="320.61" y="298.4" width="10" height="7.5" transform="translate(-417.78 104.29) rotate(-45)"/><rect class="cls-75" x="320.76" y="298.25" width="10" height="7.5" transform="translate(-417.63 104.35) rotate(-45)"/><rect class="cls-75" x="320.91" y="298.1" width="10" height="7.5" transform="translate(-417.48 104.41) rotate(-45)"/><rect class="cls-76" x="321.07" y="297.94" width="10" height="7.5" transform="translate(-417.33 104.48) rotate(-45)"/><rect class="cls-77" x="321.22" y="297.79" width="10" height="7.5" transform="translate(-417.18 104.54) rotate(-45)"/><rect class="cls-78" x="321.37" y="297.64" width="10" height="7.5" transform="translate(-417.02 104.6) rotate(-45)"/><rect class="cls-79" x="321.52" y="297.49" width="10" height="7.5" transform="translate(-416.87 104.66) rotate(-45)"/><rect class="cls-79" x="321.67" y="297.34" width="10" height="7.5" transform="translate(-416.72 104.73) rotate(-45)"/><rect class="cls-80" x="321.83" y="297.18" width="10" height="7.5" transform="translate(-416.57 104.79) rotate(-45)"/><rect class="cls-80" x="321.98" y="297.03" width="10" height="7.5" transform="translate(-416.42 104.85) rotate(-45)"/><rect class="cls-81" x="322.13" y="296.88" width="10" height="7.5" transform="translate(-416.26 104.92) rotate(-45)"/><rect class="cls-81" x="322.28" y="296.73" width="10" height="7.5" transform="translate(-416.11 104.98) rotate(-45)"/><rect class="cls-82" x="322.44" y="296.58" width="10" height="7.5" transform="translate(-415.96 105.04) rotate(-45)"/><rect class="cls-82" x="322.59" y="296.42" width="10" height="7.5" transform="translate(-415.81 105.11) rotate(-45)"/><rect class="cls-83" x="322.74" y="296.27" width="10" height="7.5" transform="translate(-415.66 105.17) rotate(-45)"/><rect class="cls-84" x="322.89" y="296.12" width="10" height="7.5" transform="translate(-415.5 105.23) rotate(-45)"/><rect class="cls-85" x="323.04" y="295.97" width="10" height="7.5" transform="translate(-415.35 105.29) rotate(-45)"/><rect class="cls-85" x="323.2" y="295.81" width="10" height="7.5" transform="translate(-415.2 105.36) rotate(-45)"/><rect class="cls-86" x="323.35" y="295.66" width="10" height="7.5" transform="translate(-415.05 105.42) rotate(-45)"/><rect class="cls-86" x="323.5" y="295.51" width="10" height="7.5" transform="translate(-414.9 105.48) rotate(-45)"/><rect class="cls-87" x="323.65" y="295.36" width="10" height="7.5" transform="translate(-414.74 105.55) rotate(-45)"/><rect class="cls-87" x="323.8" y="295.21" width="10" height="7.5" transform="translate(-414.59 105.61) rotate(-45)"/><rect class="cls-88" x="323.96" y="295.05" width="10" height="7.5" transform="translate(-414.44 105.67) rotate(-45)"/><rect class="cls-88" x="324.11" y="294.9" width="10" height="7.5" transform="translate(-414.29 105.74) rotate(-45)"/><rect class="cls-89" x="324.26" y="294.75" width="10" height="7.5" transform="translate(-414.13 105.8) rotate(-45)"/><rect class="cls-90" x="324.41" y="294.6" width="10" height="7.5" transform="translate(-413.98 105.86) rotate(-45)"/><rect class="cls-91" x="324.56" y="294.45" width="10" height="7.5" transform="translate(-413.83 105.92) rotate(-45)"/><rect class="cls-91" x="324.72" y="294.29" width="10" height="7.5" transform="translate(-413.68 105.99) rotate(-45)"/><rect class="cls-92" x="324.87" y="294.14" width="10" height="7.5" transform="translate(-413.53 106.05) rotate(-45)"/><rect class="cls-92" x="325.02" y="293.99" width="10" height="7.5" transform="translate(-413.37 106.11) rotate(-45)"/><rect class="cls-93" x="325.17" y="293.84" width="10" height="7.5" transform="translate(-413.22 106.18) rotate(-45)"/><rect class="cls-93" x="325.32" y="293.69" width="10" height="7.5" transform="translate(-413.07 106.24) rotate(-45)"/><rect class="cls-94" x="325.48" y="293.53" width="10" height="7.5" transform="translate(-412.92 106.3) rotate(-45)"/><rect class="cls-94" x="325.63" y="293.38" width="10" height="7.5" transform="translate(-412.77 106.37) rotate(-45)"/><rect class="cls-95" x="325.78" y="293.23" width="10" height="7.5" transform="translate(-412.61 106.43) rotate(-45)"/><rect class="cls-96" x="325.93" y="293.08" width="10" height="7.5" transform="translate(-412.46 106.49) rotate(-45)"/><rect class="cls-97" x="326.09" y="292.93" width="10" height="7.5" transform="translate(-412.31 106.55) rotate(-45)"/><rect class="cls-97" x="326.24" y="292.77" width="10" height="7.5" transform="translate(-412.16 106.62) rotate(-45)"/><rect class="cls-98" x="326.39" y="292.62" width="10" height="7.5" transform="translate(-412.01 106.68) rotate(-45)"/><rect class="cls-98" x="326.54" y="292.47" width="10" height="7.5" transform="translate(-411.85 106.74) rotate(-45)"/><rect class="cls-99" x="326.69" y="292.32" width="10" height="7.5" transform="translate(-411.7 106.81) rotate(-45)"/><rect class="cls-99" x="326.85" y="292.16" width="10" height="7.5" transform="translate(-411.55 106.87) rotate(-45)"/><rect class="cls-100" x="327" y="292.01" width="10" height="7.5" transform="translate(-411.4 106.93) rotate(-45)"/><rect class="cls-100" x="327.15" y="291.86" width="10" height="7.5" transform="translate(-411.25 107) rotate(-45)"/><rect class="cls-101" x="327.3" y="291.71" width="10" height="7.5" transform="translate(-411.09 107.06) rotate(-45)"/><rect class="cls-102" x="327.45" y="291.56" width="10" height="7.5" transform="translate(-410.94 107.12) rotate(-45)"/><rect class="cls-103" x="327.61" y="291.4" width="10" height="7.5" transform="translate(-410.79 107.18) rotate(-45)"/><rect class="cls-103" x="327.76" y="291.25" width="10" height="7.5" transform="translate(-410.64 107.25) rotate(-45)"/><rect class="cls-104" x="327.91" y="291.1" width="10" height="7.5" transform="translate(-410.48 107.31) rotate(-45)"/><rect class="cls-104" x="328.06" y="290.95" width="10" height="7.5" transform="translate(-410.33 107.37) rotate(-45)"/><rect class="cls-105" x="328.21" y="290.8" width="10" height="7.5" transform="translate(-410.18 107.44) rotate(-45)"/><rect class="cls-105" x="328.37" y="290.64" width="10" height="7.5" transform="translate(-410.03 107.5) rotate(-45)"/><rect class="cls-106" x="328.52" y="290.49" width="10" height="7.5" transform="translate(-409.88 107.56) rotate(-45)"/><rect class="cls-106" x="328.67" y="290.34" width="10" height="7.5" transform="translate(-409.72 107.63) rotate(-45)"/><rect class="cls-107" x="328.82" y="290.19" width="10" height="7.5" transform="translate(-409.57 107.69) rotate(-45)"/><rect class="cls-108" x="328.97" y="290.04" width="10" height="7.5" transform="translate(-409.42 107.75) rotate(-45)"/><rect class="cls-109" x="329.13" y="289.88" width="10" height="7.5" transform="translate(-409.27 107.81) rotate(-45)"/><rect class="cls-109" x="329.28" y="289.73" width="10" height="7.5" transform="translate(-409.12 107.88) rotate(-45)"/><rect class="cls-110" x="329.43" y="289.58" width="10" height="7.5" transform="translate(-408.96 107.94) rotate(-45)"/><rect class="cls-110" x="329.58" y="289.43" width="10" height="7.5" transform="translate(-408.81 108) rotate(-45)"/><rect class="cls-111" x="329.73" y="289.28" width="10" height="7.5" transform="translate(-408.66 108.07) rotate(-45)"/><rect class="cls-111" x="329.89" y="289.12" width="10" height="7.5" transform="translate(-408.51 108.13) rotate(-45)"/><rect class="cls-112" x="330.04" y="288.97" width="10" height="7.5" transform="translate(-408.36 108.19) rotate(-45)"/><rect class="cls-112" x="330.19" y="288.82" width="10" height="7.5" transform="translate(-408.2 108.26) rotate(-45)"/><rect class="cls-113" x="330.34" y="288.67" width="10" height="7.5" transform="translate(-408.05 108.32) rotate(-45)"/><rect class="cls-114" x="330.5" y="288.52" width="10" height="7.5" transform="translate(-407.9 108.38) rotate(-45)"/><rect class="cls-115" x="330.65" y="288.36" width="10" height="7.5" transform="translate(-407.75 108.44) rotate(-45)"/><rect class="cls-115" x="330.8" y="288.21" width="10" height="7.5" transform="translate(-407.6 108.51) rotate(-45)"/><rect class="cls-116" x="330.95" y="288.06" width="10" height="7.5" transform="translate(-407.44 108.57) rotate(-45)"/><rect class="cls-116" x="331.1" y="287.91" width="10" height="7.5" transform="translate(-407.29 108.63) rotate(-45)"/><rect class="cls-117" x="331.26" y="287.75" width="10" height="7.5" transform="translate(-407.14 108.7) rotate(-45)"/></svg>